{"title":"Its.Not.A.Date.2014.HC.HDRip.x264-MenaceIISociety","uid":12185659,"size":974620843,"categoryP":"video","categoryS":"movies","magnet":"?xt=urn:btih:07d040d29b3dcc121d2c04d6c23ff3c254aa2943&amp;dn=Its.Not.A.Date.2014.HC.HDRip.x264-MenaceIISociety&amp;tr=udp%3A%2F%2Ftracker.openbittorrent.com%3A80&amp;tr=udp%3A%2F%2Fopen.demonii.com%3A1337&amp;tr=udp%3A%2F%2Ftracker.coppersurfer.tk%3A6969&amp;tr=udp%3A%2F%2Fexodus.desync.com%3A6969","seeders":9,"leechers":3,"uploader":"xxxlavalxxx","files":4,"time":1438548964,"description":" &lt;a href=&quot;http://extraimago.com/image/O6W&quot; rel=&quot;nofollow&quot; target=&quot;_NEW&quot;&gt;http://extraimago.com/image/O6W&lt;/a&gt;\n &lt;a href=&quot;\nhttp://www.imdb.com/title/tt3173758/&quot; rel=&quot;nofollow&quot; target=&quot;_NEW&quot;&gt;\nhttp://www.imdb.com/title/tt3173758/&lt;/a&gt;\n\n\nIT'S NOT A DATE tells the story of Carly and Milo, a couple in their twenties on their first date. Although &quot;It's not a date&quot; but more of a casual meet at a local club; it begins as a classic girl meets boy saga with casual conversation that escalates to a night of passion. It evolves, NOT into a romantic partnership or a parting nod, to &quot;bad chemistry&quot; but instead with Carly. Frustrated with a life full of bad dates and believing that Milo is the worse of them she takes Milo on a detour into insanity so extreme he wishes &quot;It's not a date.&quot;\n\nDirectors: Barry Pollack, Mischa Pollack\nWriters: Barry Pollack, Barry Pollack\nStars: Sheila Hart, Nina Hartley, Leah Huebner\nGenres: Comedy | Drama | Romance\nCountry: USA\nLanguage: English\n\n\nIts.Not.A.Date.2014.HC.HDRip.x264-MenaceIISociety\n &lt;a href=&quot;\nhttp://www.imdb.com/title/tt3173758/&quot; rel=&quot;nofollow&quot; target=&quot;_NEW&quot;&gt;\nhttp://www.imdb.com/title/tt3173758/&lt;/a&gt;\nSource: 1080p.x264.AT.KataMish [THANKS]\n\nGeneral\nComplete name: Its.Not.A.Date.2014.HC.HDRip.x264-MenaceIISociety.mp4\nFormat: MPEG-4\nFormat profile: Base Media\nCodec ID: isom\nFile size: 912 MiB\nDuration: 1h 30mn\nOverall bit rate mode: Variable\nOverall bit rate: 1 403 Kbps\nEncoded date: UTC 2015-08-02 12:45:54\nTagged date: UTC 2015-08-02 12:45:54\n\nVideo\nID: 1\nFormat: AVC\nFormat/Info: Advanced Video Codec\nFormat profile: &lt;a class=&quot;__cf_email__&quot; href=&quot;/cdn-cgi/l/email-protection&quot; data-cfemail=&quot;2f674648476f631b011e&quot;&gt;[email&amp;#160;protected]&lt;/a&gt;&lt;script data-cfhash='f9e31' type=&quot;text/javascript&quot;&gt;\n/* &lt;![CDATA[ */!function(){try{var t=&quot;currentScript&quot;in document?document.currentScript:function(){for(var t=document.getElementsByTagName(&quot;script&quot;),e=t.length;e--;)if(t[e].getAttribute(&quot;data-cfhash&quot;))return t[e]}();if(t&amp;&amp;t.previousSibling){var e,r,n,i,c=t.previousSibling,a=c.getAttribute(&quot;data-cfemail&quot;);if(a){for(e=&quot;&quot;,r=parseInt(a.substr(0,2),16),n=2;a.length-n;n+=2)i=parseInt(a.substr(n,2),16)^r,e+=String.fromCharCode(i);e=document.createTextNode(e),c.parentNode.replaceChild(e,c)}t.parentNode.removeChild(t);}}catch(u){}}()/* ]]&gt; */&lt;/script&gt;\nFormat settings, CABAC: Yes\nFormat settings, ReFrames: 3 frames\nCodec ID: avc1\nCodec ID/Info: Advanced Video Coding\nDuration: 1h 30mn\nBit rate mode: Variable\nBit rate: 1 311 Kbps\nMaximum bit rate: 40.0 Mbps\nWidth: 720 pixels\nHeight: 400 pixels\nDisplay aspect ratio: 16:9\nFrame rate mode: Constant\nFrame rate: 25.000 fps\nColor space: YUV\nChroma subsampling: 4:2:0\nBit depth: 8 bits\nScan type: Progressive\nBits/(Pixel*Frame): 0.182\nStream size: 852 MiB (93%)\nWriting library: x264 core 148 r2579 73ae2d1\n\nAudio\nID: 2\nFormat: AAC\nFormat/Info: Advanced Audio Codec\nFormat profile: LC\nCodec ID: 40\nDuration: 1h 30mn\nBit rate mode: Variable\nBit rate: 87.7 Kbps\nMaximum bit rate: 108 Kbps\nChannel(s): 2 channels\nChannel positions: Front: L R\nSampling rate: 48.0 KHz\nCompression mode: Lossy\nStream size: 57.0 MiB (6%)\nEncoded date: UTC 2015-08-02 11:26:03\nTagged date: UTC 2015-08-02 12:46:29 \n\n &lt;a href=&quot;\nhttp://extraimago.com/image/O6f&quot; rel=&quot;nofollow&quot; target=&quot;_NEW&quot;&gt;\nhttp://extraimago.com/image/O6f&lt;/a&gt; &lt;a href=&quot;\nhttp://extraimago.com/image/OV8&quot; rel=&quot;nofollow&quot; target=&quot;_NEW&quot;&gt;\nhttp://extraimago.com/image/OV8&lt;/a&gt; &lt;a href=&quot;\nhttp://extraimago.com/image/OVa&quot; rel=&quot;nofollow&quot; target=&quot;_NEW&quot;&gt;\nhttp://extraimago.com/image/OVa&lt;/a&gt; &lt;a href=&quot;\nhttp://extraimago.com/image/OVw&quot; rel=&quot;nofollow&quot; target=&quot;_NEW&quot;&gt;\nhttp://extraimago.com/image/OVw&lt;/a&gt; &lt;a href=&quot;\nhttp://extraimago.com/image/OV2&quot; rel=&quot;nofollow&quot; target=&quot;_NEW&quot;&gt;\nhttp://extraimago.com/image/OV2&lt;/a&gt; &lt;a href=&quot;\nhttp://extraimago.com/image/OVN&quot; rel=&quot;nofollow&quot; target=&quot;_NEW&quot;&gt;\nhttp://extraimago.com/image/OVN&lt;/a&gt;","torrent":{"xt":"urn:btih:07d040d29b3dcc121d2c04d6c23ff3c254aa2943","amp;dn":"Its.Not.A.Date.2014.HC.HDRip.x264-MenaceIISociety","amp;tr":["udp%3A%2F%2Ftracker.openbittorrent.com%3A80","udp%3A%2F%2Fopen.demonii.com%3A1337","udp%3A%2F%2Ftracker.coppersurfer.tk%3A6969","udp%3A%2F%2Fexodus.desync.com%3A6969"],"infoHash":"07d040d29b3dcc121d2c04d6c23ff3c254aa2943","infoHashBuffer":{"type":"Buffer","data":[7,208,64,210,155,61,204,18,29,44,4,214,194,63,243,194,84,170,41,67]},"announce":[],"urlList":[]}}